<svg xmlns="http://www.w3.org/2000/svg" width="30" height="40" viewBox="0 0 30 40"><g fill="none" fill-rule="evenodd"><path stroke="#2965f1" d="M29.5.5v39H.5V.5z"/><path fill="#2965f1" fill-opacity=".1" fill-rule="nonzero" d="M14.111 10.617c-3.887.733-6.482 4.696-5.797 8.851l.033.188a7.768 7.768 0 002.071 4.014l.155.153-3.073 4.74 1.38 1.028 3.09-4.718.025.014c1.39.793 3 1.08 4.598.779 3.887-.733 6.483-4.695 5.797-8.851-.685-4.156-4.392-6.93-8.279-6.198zm6.623 6.51c.524 3.178-1.46 6.208-4.433 6.769a5.16 5.16 0 01-3.961-.88l-.144-.104c-1.169-.884-1.972-2.218-2.226-3.756-.524-3.178 1.46-6.208 4.433-6.768s5.807 1.561 6.331 4.74z"/><path fill="#000" d="M5 4h20v1H5zm0 4h20v1H5zm0 4h20v1H5zm0 4h9v1H5zm0 7h20v1H5zm0 4h20v1H5zm0 4h20v1H5zm0 4h9v1H5z"/></g></svg>