<svg xmlns="http://www.w3.org/2000/svg" width="30" height="40" viewBox="0 0 30 40"><g fill="none" fill-rule="evenodd"><path stroke="#2965f1" d="M29.5.5v39H.5V.5z"/><path fill="#2965f1" fill-rule="nonzero" d="M22.39 16.815c.686 4.156-1.91 8.118-5.797 8.851a6.71 6.71 0 01-4.335-.636l-.263-.143-.025-.014-3.09 4.718-1.38-1.028 3.073-4.74-.155-.153a7.74 7.74 0 01-2.006-3.705l-.065-.309-.033-.188c-.685-4.155 1.91-8.118 5.797-8.85 3.887-.733 7.594 2.041 8.28 6.197zm-7.987-4.427c-2.972.56-4.957 3.59-4.433 6.768.238 1.442.959 2.704 2.012 3.585l.214.17.144.106a5.16 5.16 0 003.961.879c2.973-.56 4.957-3.591 4.433-6.769a6.177 6.177 0 00-.328-1.211l.556-.557.015-.015a.5.5 0 00-.015-.692l-.016-.015a.5.5 0 00-.691.015l-.314.314c-1.157-1.91-3.309-2.998-5.538-2.578zm5.18 2.937l-4.137 4.136-1.783-1.783a.5.5 0 00-.691.722l2.12 2.121.017.015a.5.5 0 00.691-.015l4.221-4.221c.096.283.17.579.22.885.477 2.888-1.326 5.64-4.027 6.15a4.688 4.688 0 01-3.598-.799l-.13-.095c-1.063-.803-1.793-2.015-2.024-3.412-.476-2.887 1.327-5.64 4.028-6.15 2.065-.389 4.056.647 5.092 2.446z"/></g></svg>