<svg xmlns="http://www.w3.org/2000/svg" width="30" height="40" viewBox="0 0 30 40"><g fill="none" fill-rule="evenodd"><path stroke="#2965f1" d="M29.5.5v39H.5V.5z"/><path fill="#2965f1" fill-opacity=".1" fill-rule="nonzero" d="M14.111 4.117c-3.887.733-6.482 4.696-5.797 8.851l.033.188a7.768 7.768 0 002.071 4.014l.155.153-3.073 4.74 1.38 1.028 3.09-4.718.025.014c1.39.793 3 1.08 4.598.779 3.887-.733 6.483-4.695 5.797-8.851-.685-4.156-4.392-6.93-8.279-6.198zm6.623 6.51c.524 3.178-1.46 6.208-4.433 6.769a5.16 5.16 0 01-3.961-.88l-.144-.104c-1.169-.884-1.972-2.218-2.226-3.756-.524-3.178 1.46-6.208 4.433-6.768s5.807 1.561 6.331 4.74z"/><path stroke="#000" d="M24.5 9.5v11h-19v-11z"/><path stroke="#000" d="M24 10l-9 4-9-4"/><path fill="#2965f1" d="M15 25c1.74 0 3.273.89 4.169 2.239l-4.123 4.122-1.783-1.783a.5.5 0 00-.691.722l2.12 2.121.017.015a.5.5 0 00.691-.015l4.254-4.253A5 5 0 1115 25z"/></g></svg>