<svg version="1" xmlns="http://www.w3.org/2000/svg" width="933.333" height="933.333" viewBox="0 0 700.000000 700.000000"><path d="M343 37.3c-.3.3-3.6.7-7.5 1.1-9.3.9-12.9 1.4-19.5 2.7-56.7 11.1-103.3 37.9-143.3 82.6-14.8 16.5-33 46.4-42 68.8-7 17.7-13.7 41.3-15.2 54-.3 3.2-.8 6.2-1 6.6-1.8 2.8-2.6 43.4-1.2 57.9.9 8.3 3.3 23.6 4.7 29 .5 1.9 1.1 4.6 1.4 6 1.3 6.4 2.8 11.9 4.3 16 .3.8.7 1.9.9 2.5 1.2 4.9 8.3 22.5 13 32.1 11.6 23.7 27.1 45.8 46 65.2l11.1 11.3-2.1 3.2c-8.2 12-68.4 99-69.4 100.2-.8 1-16 23-21.2 30.7-1.4 2-5.2 7.6-8.5 12.4-5.5 7.9-5.8 8.8-4.2 9.8 1 .6 11.8 8.1 24 16.6l22.2 15.6 2.1-2.6c1.5-1.9 24.6-34.6 35.4-50.3 1.2-1.8 15.9-22.8 20-28.7 39.1-55.8 50.2-71.6 50.9-71.8.5-.2 5.3 1.8 10.7 4.4 16.4 7.8 41.9 16.6 53.9 18.7 1.7.3 5.5 1 8.5 1.6 16.2 3.1 22.8 3.6 44.5 3.6 18 0 27.5-.5 36.1-2 1.6-.3 4.3-.7 5.9-.9 14.7-2 40.8-9.7 58-17.1 19.5-8.4 41.4-21.6 58-35 45.7-36.6 79.4-93.5 89-150.5.9-5.2 1.8-10.6 2-12 .3-1.4.8-6.8 1.1-12 4.2-58.9-10.6-114.3-43.4-162-5.7-8.4-9.1-12.8-16.7-21.9-3.9-4.6-20.1-20.7-26-25.8-22.7-19.4-49.7-35.2-78.6-45.6-16-5.8-36-10.9-48.4-12.3-2.1-.2-5.1-.7-6.5-1-2.9-.7-48.4-1.7-49-1.1zm35.9 59.1c85.7 7.3 156.9 72.5 171.6 157.1 3.6 20.9 3.9 39.8 1 61.5-1.1 8.6-5.2 25.5-7.9 32.8-.7 2-1.9 5.3-2.6 7.2-2.8 8-8.5 19.7-15.3 31.2-6.4 10.9-16.5 23.6-27.7 34.9-13.6 13.6-24.1 21.9-38.4 30.4-8.3 4.8-23.7 12.5-25.2 12.5-.3 0-2 .6-3.7 1.4-7.1 3.3-27.8 8.9-37.2 10.2-1.6.2-5.9.8-9.5 1.3-11.2 1.7-42.9.6-55.5-1.8-6-1.2-11.4-2.3-12-2.5-.5-.1-3-.8-5.5-1.5-36.8-10-73.1-33.9-97.6-64.2-21.8-26.9-37.5-64.3-41.1-97.9-1-9.2-1-34.2-.1-43 5.2-48.3 30.8-95.6 68.8-127 9.1-7.5 26.8-18.8 38.1-24.2 15.9-7.7 36.3-14.2 51.5-16.3 2.1-.3 4.9-.8 6-1 1.2-.3 5.7-.8 10-1.1 4.4-.3 8-.7 8.1-.8.4-.3 17.3.2 24.2.8z"/></svg>