<svg height="40" viewBox="0 0 30 40" width="30" xmlns="http://www.w3.org/2000/svg"><g fill="none" fill-rule="evenodd"><path d="m29.5.5v39h-29v-39z" stroke="#2965f1"/><path d="m14.1111401 10.6173523c-3.8870279.7327387-6.48246988 4.6954942-5.79708199 8.851062l.03317771.1876169c.29395957 1.5568903 1.023321 2.9470925 2.07072948 4.0136939l.1549643.1529728-3.0729296 4.7406206 1.37977295 1.0275906 3.09011855-4.7183309.02517.0146034c1.3907339.7926698 2.9999556 1.080075 4.5980877.7788131 3.8870279-.7327387 6.4824699-4.6954942 5.797082-8.8510621-.6853878-4.1555678-4.3920632-6.93031908-8.2790911-6.1975803zm6.6230708 6.5097546c.5241201 3.1777872-1.4606297 6.2081297-4.4330627 6.7684593-1.3979327.2635225-2.8035041-.0605917-3.9611319-.8787371l-.143626-.1050105c-1.1691218-.8839455-1.9726265-2.2174621-2.22631182-3.7555786-.52412015-3.1777872 1.46062962-6.2081296 4.43306272-6.7684592s5.8069495 1.561539 6.3310697 4.7393261z" fill="#2965f1" fill-opacity=".1" fill-rule="nonzero"/><g fill="#000"><path d="m5 4h20v1h-20z"/><path d="m5 8h20v1h-20z"/><path d="m5 12h20v1h-20z"/><path d="m5 16h9v1h-9z"/><path d="m5 23h20v1h-20z"/><path d="m5 27h20v1h-20z"/><path d="m5 31h20v1h-20z"/><path d="m5 35h9v1h-9z"/></g></g></svg>