<svg height="100" viewBox="0 0 649 100" width="649" xmlns="http://www.w3.org/2000/svg"><g fill="none"><path d="m34.3 99c4.3333333 0 8.6-.5166667 12.8-1.55s6.6166667-1.55 7.25-1.55 1.1166667.15 1.45.45.7.8166667 1.1 1.55h1.1l.7-22.3h-1.8c-6.1333333 14.2666667-12.8666667 21.4-20.2 21.4-5.3333333 0-9.3666667-2.6833333-12.1-8.05s-4.1-12.7833333-4.1-22.25v-7.9c0-19.9333333 5.1666667-29.9 15.5-29.9 4.0666667 0 7.6833333 1.7833333 10.85 5.35s6.25 8.7166667 9.25 15.45h1.8l-.8-21.7h-1.1c-.4.7333333-.7666667 1.25-1.1 1.55s-.8333333.45-1.5.45-2.95-.5166667-6.85-1.55-7.8833333-1.55-11.95-1.55c-10.5333333 0-18.9166667 3.2-25.15 9.6-6.23333333 6.4-9.35 15.4833333-9.35 27.25s2.98333333 20.5833333 8.95 26.45c5.9666667 5.8666667 14.3833333 8.8 25.25 8.8zm38.2 0c.8666667-2 1.7666667-3 2.7-3 .5333333 0 3.25.5 8.15 1.5s9.25 1.5 13.05 1.5c7.333333 0 13.25-2.1833333 17.75-6.55s6.75-10.15 6.75-17.35c0-4.4-.9-8.2-2.7-11.4-.733333-1.4-1.75-2.6833333-3.05-3.85s-2.533333-2.1333333-3.7-2.9-2.666667-1.5-4.5-2.2-3.366667-1.25-4.6-1.65-3.8166667-1.1333333-7.75-2.2-7.25-2.45-9.95-4.15-4.05-4.1333333-4.05-7.3 1.1333333-5.7 3.4-7.6 5.45-2.85 9.55-2.85 7.9 1.75 11.4 5.25 6.85 8.15 10.05 13.95h1.6l-.7-20.2h-1.1c-.733333 1.3333333-1.566667 2-2.5 2s-3.316667-.5166667-7.15-1.55-7.5166667-1.55-11.05-1.55c-7.3333333 0-13.1166667 2.1333333-17.35 6.4s-6.35 9.3666667-6.35 15.3c0 7.2666667 2.0666667 12.6333333 6.2 16.1 2.0666667 1.7333333 4.25 3.1333333 6.55 4.2s6 2.3166667 11.1 3.75 9.033333 3.1166667 11.8 5.05 4.15 4.7166667 4.15 8.35-1.283333 6.35-3.85 8.15-5.516667 2.7-8.85 2.7c-5.0666667 0-9.8833333-2.1666667-14.45-6.5s-8.3166667-9.4-11.25-15.2h-1.7l1 23.8zm60 0c.866667-2 1.766667-3 2.7-3 .533333 0 3.25.5 8.15 1.5s9.25 1.5 13.05 1.5c7.333333 0 13.25-2.1833333 17.75-6.55s6.75-10.15 6.75-17.35c0-4.4-.9-8.2-2.7-11.4-.733333-1.4-1.75-2.6833333-3.05-3.85s-2.533333-2.1333333-3.7-2.9-2.666667-1.5-4.5-2.2-3.366667-1.25-4.6-1.65-3.816667-1.1333333-7.75-2.2-7.25-2.45-9.95-4.15-4.05-4.1333333-4.05-7.3 1.133333-5.7 3.4-7.6 5.45-2.85 9.55-2.85 7.9 1.75 11.4 5.25 6.85 8.15 10.05 13.95h1.6l-.7-20.2h-1.1c-.733333 1.3333333-1.566667 2-2.5 2s-3.316667-.5166667-7.15-1.55-7.516667-1.55-11.05-1.55c-7.333333 0-13.116667 2.1333333-17.35 6.4s-6.35 9.3666667-6.35 15.3c0 7.2666667 2.066667 12.6333333 6.2 16.1 2.066667 1.7333333 4.25 3.1333333 6.55 4.2s6 2.3166667 11.1 3.75 9.033333 3.1166667 11.8 5.05 4.15 4.7166667 4.15 8.35-1.283333 6.35-3.85 8.15-5.516667 2.7-8.85 2.7c-5.066667 0-9.883333-2.1666667-14.45-6.5s-8.316667-9.4-11.25-15.2h-1.7l1 23.8zm86.4-1v-1.9h-7.5l7.7-21.6h19.8l7.3 21.6h-7.1v1.9h32.7v-1.9h-4.6l-25.2-68.7h-8.2l-25.5 68.7h-4.7v1.9zm19.2-25.7h-18.1l9.4-26.2zm55.8 26.7c4.133333 0 7.25-.7166667 9.35-2.15s3.683333-3.4833333 4.75-6.15l1.1 7.3h22.8v-1.8h-5.5v-45.8h-23.2v1.8h4.6v30.6c0 3.6666667-.666667 6.5333333-2 8.6s-2.85 3.1-4.55 3.1-2.833333-.6333333-3.4-1.9-.85-3.9-.85-7.9v-34.3h-24.2v1.8h5.6v30.1c0 11.1333333 5.166667 16.7 15.5 16.7zm59.1 0c6.933333 0 11.533333-2.6666667 13.8-8l1.1 7h22.2v-1.8h-4.9v-73.2h-25v1.8h6.1v29.5c-1.866667-3.2666667-5.733333-4.9-11.6-4.9-13.2 0-19.8 8.3-19.8 24.9 0 8.2 1.583333 14.3666667 4.75 18.5s7.616667 6.2 13.35 6.2zm6.35-4.3c-1.966667 0-3.316667-1.15-4.05-3.45s-1.1-6.95-1.1-13.95l.000926-5.8060185c.021605-7.0108025.421296-11.9421296 1.199074-14.7939815.8-2.9333333 2.3-4.4 4.5-4.4s3.866667 1 5 3 1.7 4.4333333 1.7 7.3v21.8c0 3.4-.716667 5.9666667-2.15 7.7s-3.133333 2.6-5.1 2.6zm48.05-51.2c3.533333 0 6.133333-.8666667 7.8-2.6s2.5-4.05 2.5-6.95-.866667-5.1333333-2.6-6.7-4.266667-2.35-7.6-2.35-5.816667.8666667-7.45 2.6-2.45 3.9333333-2.45 6.6.75 4.9 2.25 6.7 4.016667 2.7 7.55 2.7zm15 54.5v-1.8h-5.6v-45.8h-24.5v1.8h5.9v44h-5.5v1.8zm24.1 1c5.533333 0 9.5-1.35 11.9-4.05s3.866667-6.35 4.4-10.95l-1.7-.2c-.466667 3.4666667-1.45 6.2-2.95 8.2s-3.25 3-5.25 3-3.316667-.7333333-3.95-2.2-.95-3.7666667-.95-6.9v-33.7h13v-1.8h-13v-17.5l-18.6 4.6v12.9h-5.5v1.8h5.5v31.5c0 5.8 1.466667 9.8 4.4 12s7.166667 3.3 12.7 3.3zm43.4 0c16.933333 0 25.4-8.5 25.4-25.5 0-8.1333333-2.033333-14.1833333-6.1-18.15s-10.233333-5.95-18.5-5.95-14.683333 2.15-19.25 6.45-6.85 10.4333333-6.85 18.4 2.133333 14.0833333 6.4 18.35 10.566667 6.4 18.9 6.4zm.2-1.8c-2.133333 0-3.566667-.8-4.3-2.4-.466667-.9333333-.916667-2.1333333-1.35-3.6s-.65-5.8333333-.65-13.1v-7.8c0-6.1333333.3-10.7.9-13.7.4-1.9333333 1.05-3.3166667 1.95-4.15s2.083333-1.25 3.55-1.25c2.533333 0 4.15 1.4833333 4.85 4.45s1.05 7.6833333 1.05 14.15l-.000487 9.0166036c-.013629 7.1718767-.313466 11.7996755-.899513 13.8833964-.8 3-2.5 4.5-5.1 4.5zm59.2.8v-1.8h-7.1v-26.8c0-4.4.933333-8.2 2.8-11.4s4.033333-4.8 6.5-4.8c3.066667 0 3.766667 1.7 2.1 5.1h-3.6c-1.066667 3.5333333-.883333 6.3.55 8.3s3.666667 3 6.7 3 5.283333-.8666667 6.75-2.6 2.2-4.2166667 2.2-7.45-.983333-5.7333333-2.95-7.5-4.516667-2.65-7.65-2.65-5.933333.9166667-8.4 2.75-4.133333 4.45-5 7.85v-9.6h-24.1v1.8h5.5v44h-5.5v1.8zm21.8 1c1.4-2.4666667 2.833333-3.7 4.3-3.7.466667 0 1.1.2666667 1.9.8 3.866667 1.9333333 7.866667 2.9 12 2.9 5.8 0 10.366667-1.45 13.7-4.35s5-7.1666667 5-12.8-1.833333-9.7166667-5.5-12.25c-1.8-1.2-3.7-2.2166667-5.7-3.05s-5.266667-1.8166667-9.8-2.95c-.4-.0666667-1.016667-.2333333-1.85-.5s-1.45-.4833333-1.85-.65-.9-.4-1.5-.7-1.033333-.5833333-1.3-.85-.633333-.6833333-1.1-1.25-.7-1.35-.7-2.35c0-1.6666667.766667-3.05 2.3-4.15s3.866667-1.65 7-1.65c7.133333 0 12.4 4.3333333 15.8 13h1.2v-15.3h-1.1c-.666667 1.2666667-1.233333 2.1333333-1.7 2.6s-1.033333.7-1.7.7-1.633333-.2666667-2.9-.8c-3.466667-1.5333333-6.833333-2.3-10.1-2.3-5.333333 0-9.6 1.55-12.8 4.65s-4.8 7.25-4.8 12.45 1.833333 9 5.5 11.4c3.066667 2 6.866667 3.6 11.4 4.8 4.066667.8 7.4 1.9333333 10 3.4 1.666667.9333333 2.5 2.3333333 2.5 4.2 0 4.3333333-3.4 6.5-10.2 6.5-4.4 0-8.066667-1.1666667-11-3.5s-5.266667-6.4-7-12.2h-1.2v17.9z" fill="#000"/><path d="m627.48146.78290041c-9.246203 1.63035508-15.420068 10.44754769-13.789713 19.69375079l.078921.4174505c.699251 3.4641051 2.434208 6.5573267 4.925713 8.9305314l.368619.3403669-7.30968 10.5479546 3.282112 2.286405 7.350568-10.4983596.059873.0324927c3.308185 1.7637026 7.136094 2.4031837 10.937625 1.7328713 9.246203-1.6303551 15.420068-10.4475477 13.789713-19.6937508-1.630356-9.24620317-10.447548-15.42006788-19.693751-13.78971279zm15.75452 14.48430549c1.246742 7.0706259-3.474449 13.813185-10.545075 15.0599271-3.325309.5863417-6.668789-.1348173-9.422477-1.9552037l-.341648-.23365c-2.781029-1.9667925-4.692352-4.9338876-5.295802-8.3562208-1.246742-7.0706259 3.474448-13.81318496 10.545074-15.05992708 7.070626-1.24674213 13.813185 3.47444853 15.059928 10.54507448z" fill="#2965f1"/></g></svg>