<svg height="40" viewBox="0 0 30 40" width="30" xmlns="http://www.w3.org/2000/svg"><g fill="none" fill-rule="evenodd"><path d="m29.5.5v39h-29v-39z" stroke="#2965f1"/><path d="m14.6111401 6.11735226c-3.8870279.73273873-6.48246988 4.69549424-5.79708199 8.85106204l.03317771.1876169c.29395957 1.5568903 1.023321 2.9470925 2.07072948 4.0136939l.1549643.1529728-3.0729296 4.7406206 1.37977295 1.0275906 3.09011855-4.7183309.02517.0146034c1.3907339.7926698 2.9999556 1.080075 4.5980877.7788131 3.8870279-.7327387 6.4824699-4.6954942 5.797082-8.8510621-.6853878-4.15556783-4.3920632-6.93031908-8.2790911-6.19758034zm6.6230708 6.50975464c.5241201 3.1777872-1.4606297 6.2081297-4.4330627 6.7684593-1.3979327.2635225-2.8035041-.0605917-3.9611319-.8787371l-.143626-.1050105c-1.1691218-.8839455-1.9726265-2.2174621-2.2263118-3.7555786-.52412017-3.1777872 1.4606296-6.2081296 4.4330627-6.76845922s5.8069495 1.56153898 6.3310697 4.73932612z" fill="#2965f1" fill-opacity=".1" fill-rule="nonzero"/><path d="m5 10h1v24h-1z" fill="#000"/><path d="m6 20 19-5-19-5z" fill="#2965f1"/></g></svg>