<svg height="40" viewBox="0 0 30 40" width="30" xmlns="http://www.w3.org/2000/svg"><g fill="none" fill-rule="evenodd"><path d="m29.5.5v39h-29v-39z" stroke="#2965f1"/><path d="m22.3902312 16.8149627c.6853879 4.1555877-1.9100541 8.118362-5.797082 8.8511042-1.4982489.2824344-3.0062444.0474831-4.3348207-.636132l-.263267-.1426848-.02517-.0146034-3.09011855 4.7183533-1.37977295-1.0275955 3.0729296-4.7406431-.1549643-.1529736c-.97758125-.9954993-1.67810817-2.2728924-2.00616698-3.7046025l-.0645625-.3091105-.03317771-.1876178c-.68538789-4.1555876 1.91005409-8.118362 5.79708199-8.8511042 3.8870279-.73274221 7.5937033 2.0420223 8.2790911 6.1976099zm-7.98709-4.4271729c-2.9724331.5603323-4.95718287 3.5906891-4.43306272 6.7684914.23782992 1.4419911.95889972 2.7041572 2.01143102 3.5846473l.2148808.1709492.143626.105011c1.1576278.8181493 2.5631992 1.142265 3.9611319.8787413 2.972433-.5603323 4.9571828-3.5906892 4.4330627-6.7684915-.0699191-.4239276-.1809547-.8290636-.3279491-1.2115472l.5556317-.5561357.0150081-.0156615c.1801181-.1961782.1751155-.5013216-.0150081-.6914453l-.0156631-.0150098c-.1961773-.1801171-.5013208-.1751131-.6914437.0150098l-.3133715.3140895c-1.1577616-1.9106861-3.3092388-2.9988431-5.538274-2.5786485zm5.1789878 2.9369899-4.1356641 4.1358539-1.7834589-1.7827108c-.1961774-.1801172-.5013208-.1751132-.6914454.0150114-.1952631.1952631-.1952638.5118463-.0000017.7071085l2.1213203 2.1213203.0156631.0150098c.1961774.1801171.5013208.1751131.6914454-.0150115l4.2214605-4.2217812c.0955892.2832681.1698582.5791327.2204411.8858225.4761765 2.8871146-1.3270193 5.6402712-4.0275507 6.1493474-1.2700576.2394181-2.547055-.0550493-3.5987895-.7983589l-.1304879-.0954052c-1.062177-.8030909-1.7921816-2.0146305-2.0226612-3.4120553-.47617651-2.8871146 1.3270194-5.6402712 4.0275508-6.1493474 2.064637-.389204 4.056035.6459497 5.0921782 2.4451965z" fill="#2965f1" fill-rule="nonzero"/></g></svg>