<svg xmlns="http://www.w3.org/2000/svg" width="649" height="100" viewBox="0 0 649 100"><g fill="none"><path fill="#000" d="M34.3 99c4.333 0 8.6-.517 12.8-1.55s6.617-1.55 7.25-1.55 1.117.15 1.45.45.7.817 1.1 1.55H58l.7-22.3h-1.8C50.767 89.867 44.033 97 36.7 97c-5.333 0-9.367-2.683-12.1-8.05s-4.1-12.783-4.1-22.25v-7.9c0-19.933 5.167-29.9 15.5-29.9 4.067 0 7.683 1.783 10.85 5.35s6.25 8.717 9.25 15.45h1.8L57.1 28H56c-.4.733-.767 1.25-1.1 1.55s-.833.45-1.5.45-2.95-.517-6.85-1.55-7.883-1.55-11.95-1.55c-10.533 0-18.917 3.2-25.15 9.6C3.217 42.9.1 51.983.1 63.75S3.083 84.333 9.05 90.2C15.017 96.067 23.433 99 34.3 99zm38.2 0c.867-2 1.767-3 2.7-3 .533 0 3.25.5 8.15 1.5S92.6 99 96.4 99c7.333 0 13.25-2.183 17.75-6.55s6.75-10.15 6.75-17.35c0-4.4-.9-8.2-2.7-11.4-.733-1.4-1.75-2.683-3.05-3.85s-2.533-2.133-3.7-2.9-2.667-1.5-4.5-2.2-3.367-1.25-4.6-1.65-3.817-1.133-7.75-2.2-7.25-2.45-9.95-4.15-4.05-4.133-4.05-7.3 1.133-5.7 3.4-7.6S89.45 29 93.55 29s7.9 1.75 11.4 5.25S111.8 42.4 115 48.2h1.6l-.7-20.2h-1.1c-.733 1.333-1.567 2-2.5 2s-3.317-.517-7.15-1.55-7.517-1.55-11.05-1.55c-7.333 0-13.117 2.133-17.35 6.4s-6.35 9.367-6.35 15.3c0 7.267 2.067 12.633 6.2 16.1 2.067 1.733 4.25 3.133 6.55 4.2s6 2.317 11.1 3.75 9.033 3.117 11.8 5.05 4.15 4.717 4.15 8.35-1.283 6.35-3.85 8.15-5.517 2.7-8.85 2.7c-5.067 0-9.883-2.167-14.45-6.5S74.733 81 71.8 75.2h-1.7l1 23.8zm60 0c.867-2 1.767-3 2.7-3 .533 0 3.25.5 8.15 1.5S152.6 99 156.4 99c7.333 0 13.25-2.183 17.75-6.55s6.75-10.15 6.75-17.35c0-4.4-.9-8.2-2.7-11.4-.733-1.4-1.75-2.683-3.05-3.85s-2.533-2.133-3.7-2.9-2.667-1.5-4.5-2.2-3.367-1.25-4.6-1.65-3.817-1.133-7.75-2.2-7.25-2.45-9.95-4.15-4.05-4.133-4.05-7.3 1.133-5.7 3.4-7.6 5.45-2.85 9.55-2.85 7.9 1.75 11.4 5.25S171.8 42.4 175 48.2h1.6l-.7-20.2h-1.1c-.733 1.333-1.567 2-2.5 2s-3.317-.517-7.15-1.55-7.517-1.55-11.05-1.55c-7.333 0-13.117 2.133-17.35 6.4s-6.35 9.367-6.35 15.3c0 7.267 2.067 12.633 6.2 16.1 2.067 1.733 4.25 3.133 6.55 4.2s6 2.317 11.1 3.75 9.033 3.117 11.8 5.05 4.15 4.717 4.15 8.35-1.283 6.35-3.85 8.15-5.517 2.7-8.85 2.7c-5.067 0-9.883-2.167-14.45-6.5s-8.317-9.4-11.25-15.2h-1.7l1 23.8zm86.4-1v-1.9h-7.5l7.7-21.6h19.8l7.3 21.6h-7.1V98h32.7v-1.9h-4.6L242 27.4h-8.2l-25.5 68.7h-4.7V98zm19.2-25.7H220l9.4-26.2zM293.9 99c4.133 0 7.25-.717 9.35-2.15s3.683-3.483 4.75-6.15l1.1 7.3h22.8v-1.8h-5.5V50.4h-23.2v1.8h4.6v30.6c0 3.667-.667 6.533-2 8.6s-2.85 3.1-4.55 3.1-2.833-.633-3.4-1.9-.85-3.9-.85-7.9V50.4h-24.2v1.8h5.6v30.1c0 11.133 5.167 16.7 15.5 16.7zm59.1 0c6.933 0 11.533-2.667 13.8-8l1.1 7h22.2v-1.8h-4.9V23h-25v1.8h6.1v29.5c-1.867-3.267-5.733-4.9-11.6-4.9-13.2 0-19.8 8.3-19.8 24.9 0 8.2 1.583 14.367 4.75 18.5S347.267 99 353 99zm6.35-4.3c-1.967 0-3.317-1.15-4.05-3.45s-1.1-6.95-1.1-13.95v-5.806c.023-7.01.422-11.942 1.2-14.794.8-2.933 2.3-4.4 4.5-4.4s3.867 1 5 3 1.7 4.433 1.7 7.3v21.8c0 3.4-.717 5.967-2.15 7.7s-3.133 2.6-5.1 2.6zm48.05-51.2c3.533 0 6.133-.867 7.8-2.6s2.5-4.05 2.5-6.95-.867-5.133-2.6-6.7-4.267-2.35-7.6-2.35-5.817.867-7.45 2.6-2.45 3.933-2.45 6.6.75 4.9 2.25 6.7 4.017 2.7 7.55 2.7zm15 54.5v-1.8h-5.6V50.4h-24.5v1.8h5.9v44h-5.5V98zm24.1 1c5.533 0 9.5-1.35 11.9-4.05s3.867-6.35 4.4-10.95l-1.7-.2c-.467 3.467-1.45 6.2-2.95 8.2s-3.25 3-5.25 3-3.317-.733-3.95-2.2-.95-3.767-.95-6.9V52.2h13v-1.8h-13V32.9l-18.6 4.6v12.9h-5.5v1.8h5.5v31.5c0 5.8 1.467 9.8 4.4 12s7.167 3.3 12.7 3.3zm43.4 0c16.933 0 25.4-8.5 25.4-25.5 0-8.133-2.033-14.183-6.1-18.15s-10.233-5.95-18.5-5.95-14.683 2.15-19.25 6.45-6.85 10.433-6.85 18.4 2.133 14.083 6.4 18.35 10.567 6.4 18.9 6.4zm.2-1.8c-2.133 0-3.567-.8-4.3-2.4-.467-.933-.917-2.133-1.35-3.6s-.65-5.833-.65-13.1v-7.8c0-6.133.3-10.7.9-13.7.4-1.933 1.05-3.317 1.95-4.15s2.083-1.25 3.55-1.25c2.533 0 4.15 1.483 4.85 4.45s1.05 7.683 1.05 14.15v9.017c-.014 7.171-.314 11.8-.9 13.883-.8 3-2.5 4.5-5.1 4.5zm59.2.8v-1.8h-7.1V69.4c0-4.4.933-8.2 2.8-11.4s4.033-4.8 6.5-4.8c3.067 0 3.767 1.7 2.1 5.1H550c-1.067 3.533-.883 6.3.55 8.3s3.667 3 6.7 3 5.283-.867 6.75-2.6 2.2-4.217 2.2-7.45-.983-5.733-2.95-7.5-4.517-2.65-7.65-2.65-5.933.917-8.4 2.75-4.133 4.45-5 7.85v-9.6h-24.1v1.8h5.5v44h-5.5V98zm21.8 1c1.4-2.467 2.833-3.7 4.3-3.7.467 0 1.1.267 1.9.8 3.867 1.933 7.867 2.9 12 2.9 5.8 0 10.367-1.45 13.7-4.35s5-7.167 5-12.8-1.833-9.717-5.5-12.25c-1.8-1.2-3.7-2.217-5.7-3.05s-5.267-1.817-9.8-2.95c-.4-.067-1.017-.233-1.85-.5s-1.45-.483-1.85-.65-.9-.4-1.5-.7-1.033-.583-1.3-.85-.633-.683-1.1-1.25-.7-1.35-.7-2.35c0-1.667.767-3.05 2.3-4.15s3.867-1.65 7-1.65c7.133 0 12.4 4.333 15.8 13h1.2V49.2h-1.1c-.667 1.267-1.233 2.133-1.7 2.6s-1.033.7-1.7.7-1.633-.267-2.9-.8c-3.467-1.533-6.833-2.3-10.1-2.3-5.333 0-9.6 1.55-12.8 4.65s-4.8 7.25-4.8 12.45 1.833 9 5.5 11.4c3.067 2 6.867 3.6 11.4 4.8 4.067.8 7.4 1.933 10 3.4 1.667.933 2.5 2.333 2.5 4.2 0 4.333-3.4 6.5-10.2 6.5-4.4 0-8.067-1.167-11-3.5s-5.267-6.4-7-12.2h-1.2V99z"/><path fill="#2965f1" d="M627.481.783c-9.246 1.63-15.42 10.447-13.79 19.694l.08.417a16.933 16.933 0 004.925 8.93l.369.341-7.31 10.548 3.282 2.286 7.351-10.498.06.032a16.94 16.94 0 0010.937 1.733c9.247-1.63 15.42-10.447 13.79-19.693-1.63-9.247-10.447-15.42-19.694-13.79zm15.755 14.484c1.247 7.07-3.474 13.813-10.545 15.06a12.947 12.947 0 01-9.423-1.955l-.341-.234a12.95 12.95 0 01-5.296-8.356c-1.247-7.07 3.474-13.813 10.545-15.06 7.07-1.247 13.813 3.475 15.06 10.545z"/></g></svg>